HIERARCHY
ROOT Hips
{
	OFFSET -351.999878 -572.954773 89.312325
	CHANNELS 6 Xposition Yposition Zposition Zrotation Yrotation Xrotation
	JOINT Spine
	{
		OFFSET 0.000000 2.080078 8.814247
		CHANNELS 6 Xposition Yposition Zposition Zrotation Yrotation Xrotation
		JOINT Spine1
		{
			OFFSET 0.000000 0.000000 8.844139
			CHANNELS 6 Xposition Yposition Zposition Zrotation Yrotation Xrotation
			JOINT Spine2
			{
				OFFSET 0.000000 0.000000 11.682266
				CHANNELS 6 Xposition Yposition Zposition Zrotation Yrotation Xrotation
				JOINT Spine3
				{
					OFFSET 0.000000 0.000000 11.746696
					CHANNELS 6 Xposition Yposition Zposition Zrotation Yrotation Xrotation
					JOINT Neck
					{
						OFFSET 0.000000 0.000000 17.658264
						CHANNELS 6 Xposition Yposition Zposition Zrotation Yrotation Xrotation
						JOINT Neck1
						{
							OFFSET 0.000000 0.000000 5.101517
							CHANNELS 6 Xposition Yposition Zposition Zrotation Yrotation Xrotation
							JOINT Head
							{
								OFFSET 0.000000 0.000000 5.101517
								CHANNELS 6 Xposition Yposition Zposition Zrotation Yrotation Xrotation
								JOINT HeadEnd
								{
									OFFSET 0.000000 0.000000 11.655090
									CHANNELS 6 Xposition Yposition Zposition Zrotation Yrotation Xrotation
									End Site
									{
										OFFSET 0.000000 0.000000 0.100006
									}
								}
							}
						}
					}
					JOINT RightShoulder
					{
						OFFSET -2.625397 0.000000 11.175217
						CHANNELS 6 Xposition Yposition Zposition Zrotation Yrotation Xrotation
						JOINT RightArm
						{
							OFFSET 0.000000 0.000000 10.434708
							CHANNELS 6 Xposition Yposition Zposition Zrotation Yrotation Xrotation
							JOINT RightForeArm
							{
								OFFSET 0.000000 0.000000 29.628418
								CHANNELS 6 Xposition Yposition Zposition Zrotation Yrotation Xrotation
								JOINT RightHand
								{
									OFFSET 0.000000 0.000000 22.857605
									CHANNELS 6 Xposition Yposition Zposition Zrotation Yrotation Xrotation
									JOINT RightHandThumb1
									{
										OFFSET -2.867310 -2.944275 3.959564
										CHANNELS 6 Xposition Yposition Zposition Zrotation Yrotation Xrotation
										JOINT RightHandThumb2
										{
											OFFSET 0.000000 0.000000 3.350403
											CHANNELS 6 Xposition Yposition Zposition Zrotation Yrotation Xrotation
											JOINT RightHandThumb3
											{
												OFFSET 0.000000 0.000000 3.756516
												CHANNELS 6 Xposition Yposition Zposition Zrotation Yrotation Xrotation
												JOINT RightHandThumb4
												{
													OFFSET 0.000000 0.000000 3.147339
													CHANNELS 6 Xposition Yposition Zposition Zrotation Yrotation Xrotation
													End Site
													{
														OFFSET 0.000000 0.000000 0.100006
													}
												}
											}
										}
									}
									JOINT RightHandIndex1
									{
										OFFSET -0.086761 -2.345276 10.030899
										CHANNELS 6 Xposition Yposition Zposition Zrotation Yrotation Xrotation
										JOINT RightHandIndex2
										{
											OFFSET 0.000000 0.000000 4.061096
											CHANNELS 6 Xposition Yposition Zposition Zrotation Yrotation Xrotation
											JOINT RightHandIndex3
											{
												OFFSET 0.000000 0.000000 3.248871
												CHANNELS 6 Xposition Yposition Zposition Zrotation Yrotation Xrotation
												JOINT RightHandIndex4
												{
													OFFSET 0.000000 0.000000 2.639709
													CHANNELS 6 Xposition Yposition Zposition Zrotation Yrotation Xrotation
													End Site
													{
														OFFSET 0.000000 0.000000 0.100006
													}
												}
											}
										}
									}
									JOINT RightHandMiddle1
									{
										OFFSET 0.104095 -0.006775 9.502945
										CHANNELS 6 Xposition Yposition Zposition Zrotation Yrotation Xrotation
										JOINT RightHandMiddle2
										{
											OFFSET 0.000000 0.000000 4.568726
											CHANNELS 6 Xposition Yposition Zposition Zrotation Yrotation Xrotation
											JOINT RightHandMiddle3
											{
												OFFSET 0.000000 0.000000 3.654984
												CHANNELS 6 Xposition Yposition Zposition Zrotation Yrotation Xrotation
												JOINT RightHandMiddle4
												{
													OFFSET 0.000000 0.000000 2.741241
													CHANNELS 6 Xposition Yposition Zposition Zrotation Yrotation Xrotation
													End Site
													{
														OFFSET 0.000000 0.000000 0.100006
													}
												}
											}
										}
									}
									JOINT RightHandRing1
									{
										OFFSET 0.086761 2.267456 8.921707
										CHANNELS 6 Xposition Yposition Zposition Zrotation Yrotation Xrotation
										JOINT RightHandRing2
										{
											OFFSET 0.000000 0.000000 4.061096
											CHANNELS 6 Xposition Yposition Zposition Zrotation Yrotation Xrotation
											JOINT RightHandRing3
											{
												OFFSET 0.000000 0.000000 3.654984
												CHANNELS 6 Xposition Yposition Zposition Zrotation Yrotation Xrotation
												JOINT RightHandRing4
												{
													OFFSET 0.000000 0.000000 2.741241
													CHANNELS 6 Xposition Yposition Zposition Zrotation Yrotation Xrotation
													End Site
													{
														OFFSET 0.000000 0.000000 0.100006
													}
												}
											}
										}
									}
									JOINT RightHandPinky1
									{
										OFFSET -0.173492 4.467224 7.976990
										CHANNELS 6 Xposition Yposition Zposition Zrotation Yrotation Xrotation
										JOINT RightHandPinky2
										{
											OFFSET 0.000000 0.000000 3.350403
											CHANNELS 6 Xposition Yposition Zposition Zrotation Yrotation Xrotation
											JOINT RightHandPinky3
											{
												OFFSET 0.000000 0.000000 2.842758
												CHANNELS 6 Xposition Yposition Zposition Zrotation Yrotation Xrotation
												JOINT RightHandPinky4
												{
													OFFSET 0.000000 0.000000 2.639709
													CHANNELS 6 Xposition Yposition Zposition Zrotation Yrotation Xrotation
													End Site
													{
														OFFSET 0.000000 0.000000 0.100006
													}
												}
											}
										}
									}
									JOINT RightForeArmEnd
									{
										OFFSET 0.000000 0.000000 0.000000
										CHANNELS 6 Xposition Yposition Zposition Zrotation Yrotation Xrotation
										End Site
										{
											OFFSET 0.000000 0.000000 0.100006
										}
									}
								}
								JOINT RightArmEnd
								{
									OFFSET 0.000000 0.000000 0.000000
									CHANNELS 6 Xposition Yposition Zposition Zrotation Yrotation Xrotation
									End Site
									{
										OFFSET 0.000000 0.000000 0.100006
									}
								}
							}
						}
					}
					JOINT LeftShoulder
					{
						OFFSET 2.625397 0.000000 11.175217
						CHANNELS 6 Xposition Yposition Zposition Zrotation Yrotation Xrotation
						JOINT LeftArm
						{
							OFFSET 0.000000 0.000000 10.813629
							CHANNELS 6 Xposition Yposition Zposition Zrotation Yrotation Xrotation
							JOINT LeftForeArm
							{
								OFFSET 0.000000 0.000000 28.724777
								CHANNELS 6 Xposition Yposition Zposition Zrotation Yrotation Xrotation
								JOINT LeftHand
								{
									OFFSET 0.644379 0.328857 25.716171
									CHANNELS 6 Xposition Yposition Zposition Zrotation Yrotation Xrotation
									JOINT LeftHandThumb1
									{
										OFFSET 2.867310 -2.944275 3.959564
										CHANNELS 6 Xposition Yposition Zposition Zrotation Yrotation Xrotation
										JOINT LeftHandThumb2
										{
											OFFSET 0.000000 0.000000 3.350403
											CHANNELS 6 Xposition Yposition Zposition Zrotation Yrotation Xrotation
											JOINT LeftHandThumb3
											{
												OFFSET 0.000000 0.000000 3.756516
												CHANNELS 6 Xposition Yposition Zposition Zrotation Yrotation Xrotation
												JOINT LeftHandThumb4
												{
													OFFSET 0.000000 0.000000 3.100006
													CHANNELS 6 Xposition Yposition Zposition Zrotation Yrotation Xrotation
													End Site
													{
														OFFSET 0.000000 0.000000 0.100006
													}
												}
											}
										}
									}
									JOINT LeftHandIndex1
									{
										OFFSET 0.086761 -2.345276 10.030899
										CHANNELS 6 Xposition Yposition Zposition Zrotation Yrotation Xrotation
										JOINT LeftHandIndex2
										{
											OFFSET 0.000000 0.000000 4.061096
											CHANNELS 6 Xposition Yposition Zposition Zrotation Yrotation Xrotation
											JOINT LeftHandIndex3
											{
												OFFSET 0.000000 0.000000 3.248871
												CHANNELS 6 Xposition Yposition Zposition Zrotation Yrotation Xrotation
												JOINT LeftHandIndex4
												{
													OFFSET 0.000000 0.000000 2.639709
													CHANNELS 6 Xposition Yposition Zposition Zrotation Yrotation Xrotation
													End Site
													{
														OFFSET 0.000000 0.000000 0.100006
													}
												}
											}
										}
									}
									JOINT LeftHandMiddle1
									{
										OFFSET -0.104095 -0.006775 9.502945
										CHANNELS 6 Xposition Yposition Zposition Zrotation Yrotation Xrotation
										JOINT LeftHandMiddle2
										{
											OFFSET 0.000000 0.000000 4.568726
											CHANNELS 6 Xposition Yposition Zposition Zrotation Yrotation Xrotation
											JOINT LeftHandMiddle3
											{
												OFFSET 0.000000 0.000000 3.654984
												CHANNELS 6 Xposition Yposition Zposition Zrotation Yrotation Xrotation
												JOINT LeftHandMiddle4
												{
													OFFSET 0.000000 0.000000 2.741241
													CHANNELS 6 Xposition Yposition Zposition Zrotation Yrotation Xrotation
													End Site
													{
														OFFSET 0.000000 0.000000 0.100006
													}
												}
											}
										}
									}
									JOINT LeftHandRing1
									{
										OFFSET -0.086761 2.267456 8.921707
										CHANNELS 6 Xposition Yposition Zposition Zrotation Yrotation Xrotation
										JOINT LeftHandRing2
										{
											OFFSET 0.000000 0.000000 4.061096
											CHANNELS 6 Xposition Yposition Zposition Zrotation Yrotation Xrotation
											JOINT LeftHandRing3
											{
												OFFSET 0.000000 0.000000 3.654984
												CHANNELS 6 Xposition Yposition Zposition Zrotation Yrotation Xrotation
												JOINT LeftHandRing4
												{
													OFFSET 0.000000 0.000000 2.741241
													CHANNELS 6 Xposition Yposition Zposition Zrotation Yrotation Xrotation
													End Site
													{
														OFFSET 0.000000 0.000000 0.100006
													}
												}
											}
										}
									}
									JOINT LeftHandPinky1
									{
										OFFSET 0.173492 4.467224 7.976990
										CHANNELS 6 Xposition Yposition Zposition Zrotation Yrotation Xrotation
										JOINT LeftHandPinky2
										{
											OFFSET 0.000000 0.000000 3.350403
											CHANNELS 6 Xposition Yposition Zposition Zrotation Yrotation Xrotation
											JOINT LeftHandPinky3
											{
												OFFSET 0.000000 0.000000 2.842758
												CHANNELS 6 Xposition Yposition Zposition Zrotation Yrotation Xrotation
												JOINT LeftHandPinky4
												{
													OFFSET 0.000000 0.000000 2.639709
													CHANNELS 6 Xposition Yposition Zposition Zrotation Yrotation Xrotation
													End Site
													{
														OFFSET 0.000000 0.000000 0.100006
													}
												}
											}
										}
									}
									JOINT LeftForeArmEnd
									{
										OFFSET 0.000000 0.000000 0.000000
										CHANNELS 6 Xposition Yposition Zposition Zrotation Yrotation Xrotation
										End Site
										{
											OFFSET 0.000000 0.000000 0.100006
										}
									}
								}
								JOINT LeftArmEnd
								{
									OFFSET 0.000000 0.000000 0.000000
									CHANNELS 6 Xposition Yposition Zposition Zrotation Yrotation Xrotation
									End Site
									{
										OFFSET 0.000000 0.000000 0.100006
									}
								}
							}
						}
					}
				}
			}
		}
	}
	JOINT RightUpLeg
	{
		OFFSET -11.289948 0.000000 0.000000
		CHANNELS 6 Xposition Yposition Zposition Zrotation Yrotation Xrotation
		JOINT RightLeg
		{
			OFFSET 0.000000 0.000000 -38.200329
			CHANNELS 6 Xposition Yposition Zposition Zrotation Yrotation Xrotation
			JOINT RightFoot
			{
				OFFSET 0.000000 0.000000 -39.900856
				CHANNELS 6 Xposition Yposition Zposition Zrotation Yrotation Xrotation
				JOINT RightToeBase
				{
					OFFSET 0.000000 -15.261658 0.000002
					CHANNELS 6 Xposition Yposition Zposition Zrotation Yrotation Xrotation
					JOINT RightToeBaseEnd
					{
						OFFSET 0.000000 -7.370728 0.000000
						CHANNELS 6 Xposition Yposition Zposition Zrotation Yrotation Xrotation
						End Site
						{
							OFFSET 0.000000 0.000000 0.100000
						}
					}
				}
				JOINT RightLegEnd
				{
					OFFSET 0.000000 0.000000 0.000000
					CHANNELS 6 Xposition Yposition Zposition Zrotation Yrotation Xrotation
					End Site
					{
						OFFSET 0.000000 0.000000 0.100000
					}
				}
			}
			JOINT RightUpLegEnd
			{
				OFFSET 0.000000 0.000000 0.000000
				CHANNELS 6 Xposition Yposition Zposition Zrotation Yrotation Xrotation
				End Site
				{
					OFFSET 0.000000 0.000000 0.099998
				}
			}
		}
	}
	JOINT LeftUpLeg
	{
		OFFSET 11.315674 0.000000 0.000000
		CHANNELS 6 Xposition Yposition Zposition Zrotation Yrotation Xrotation
		JOINT LeftLeg
		{
			OFFSET 0.000000 0.000000 -38.200329
			CHANNELS 6 Xposition Yposition Zposition Zrotation Yrotation Xrotation
			JOINT LeftFoot
			{
				OFFSET 0.000000 0.000000 -39.900856
				CHANNELS 6 Xposition Yposition Zposition Zrotation Yrotation Xrotation
				JOINT LeftToeBase
				{
					OFFSET 0.000000 -15.261658 0.000002
					CHANNELS 6 Xposition Yposition Zposition Zrotation Yrotation Xrotation
					JOINT LeftToeBaseEnd
					{
						OFFSET 0.000000 -7.539978 0.000000
						CHANNELS 6 Xposition Yposition Zposition Zrotation Yrotation Xrotation
						End Site
						{
							OFFSET 0.000000 0.000000 0.100000
						}
					}
				}
				JOINT LeftLegEnd
				{
					OFFSET 0.000000 0.000000 0.000000
					CHANNELS 6 Xposition Yposition Zposition Zrotation Yrotation Xrotation
					End Site
					{
						OFFSET 0.000000 0.000000 0.100000
					}
				}
			}
			JOINT LeftUpLegEnd
			{
				OFFSET 0.000000 0.000000 0.000000
				CHANNELS 6 Xposition Yposition Zposition Zrotation Yrotation Xrotation
				End Site
				{
					OFFSET 0.000000 0.000000 0.099998
				}
			}
		}
	}
}
MOTION
Frames: 2
Frame Time: 0.016667
-19.599121 -8.145020 88.940666 5.837604 1.083953 -4.427566 0.000016 2.080060 8.814245 -0.154296 -1.040185 5.282200 -0.000006 -0.000003 8.844137 -0.207207 0.560206 2.131897 0.000007 0.000021 11.682290 -3.444436 0.170770 7.120728 0.000005 -0.000016 11.746692 -1.458935 0.459266 6.842825 0.000010 0.000010 17.658253 0.989251 0.888167 -3.940468 0.000014 0.000020 5.101525 1.644688 -0.489200 -8.553594 0.000006 -0.000008 5.101548 -0.845105 1.301385 -13.851843 -0.000029 0.000001 11.655075 0.000000 0.000000 -0.000002 -2.625370 -0.000027 11.175190 19.518471 -83.556354 0.561733 0.000000 0.000011 10.434700 -71.581134 -14.214279 77.982975 -0.000014 0.000088 29.628418 8.530895 1.019128 11.762626 -0.000008 0.000092 22.857540 -40.510521 3.889679 -13.777722 -2.867298 -2.944260 3.959518 31.678018 -22.563388 43.884560 -0.000008 -0.000023 3.350395 -24.496591 11.026079 -42.059967 0.000008 -0.000008 3.756470 -16.165763 9.630610 -28.648624 0.000013 -0.000007 3.147335 0.000002 -0.000000 0.000003 -0.086777 -2.345273 10.030884 -30.123993 -54.481707 21.014773 -0.000023 -0.000027 4.061108 -1.994051 -40.170607 6.813750 0.000006 0.000028 3.248871 -2.494073 -40.170586 6.813801 -0.000007 -0.000002 2.639725 -0.000002 0.000000 -0.000000 0.104080 -0.006792 9.502960 -20.640379 -54.430686 16.300132 -0.000016 0.000009 4.568726 -0.390948 -39.532708 2.478917 -0.000024 0.000022 3.654982 -0.890947 -39.532698 2.478941 -0.000002 -0.000010 2.741253 0.000001 0.000000 0.000000 0.086763 2.267443 8.921719 -8.772880 -60.839302 13.248001 0.000013 0.000003 4.061111 0.260453 -42.640946 -3.228773 0.000011 -0.000017 3.654970 1.260432 -42.640905 -3.228736 0.000013 0.000007 2.741230 -0.000002 0.000001 0.000002 -0.173492 4.467239 7.976980 8.856165 -63.878975 4.878846 0.000004 0.000026 3.350426 1.914831 -42.154039 -10.135094 -0.000002 0.000008 2.842766 3.914819 -42.154141 -10.135070 0.000006 0.000003 2.639719 -0.000000 0.000002 -0.000001 -0.000014 0.000014 -0.000016 -0.000002 0.000000 0.000002 0.000000 0.000000 -0.000025 -0.000000 0.000001 -0.000000 2.625381 0.000029 11.175200 -16.775211 78.412737 -0.172085 0.000000 0.000029 10.813610 75.465538 17.996471 72.586790 -0.000065 -0.000023 28.724766 8.744240 -1.537304 28.213971 0.644352 0.328873 25.716190 33.168355 6.093637 -35.434140 2.867248 -2.944336 3.959564 -32.995350 27.956798 36.610944 0.000008 -0.000031 3.350491 36.138982 -9.737558 -60.735244 -0.000031 -0.000031 3.756531 24.193235 -11.009493 -41.576017 -0.000027 0.000004 3.100019 -0.000000 -0.000001 -0.000001 0.086790 -2.345294 10.030930 -19.078655 94.583592 -24.167142 -0.000011 0.000013 4.061150 -10.928765 65.266631 -17.763548 -0.000008 -0.000015 3.248924 -11.428743 65.266583 -17.763512 -0.000044 0.000009 2.639720 -0.000001 -0.000000 -0.000003 -0.104117 -0.006752 9.503006 -63.894118 97.240058 -62.467209 0.000031 -0.000076 4.568773 -3.609223 64.983519 -6.448175 0.000034 -0.000040 3.654993 -4.109219 64.983519 -6.448190 -0.000024 0.000016 2.741238 -0.000001 -0.000001 0.000001 -0.086750 2.267456 8.921741 -62.211036 106.266713 -52.873075 -0.000031 0.000027 4.061169 5.099368 68.525287 8.944835 0.000010 -0.000012 3.654999 6.099425 68.525259 8.943451 -0.000020 0.000000 2.741259 -0.000000 0.000000 0.000003 0.173485 4.467186 7.976997 -80.507303 112.645406 -61.806259 -0.000008 0.000015 3.350441 14.932144 65.962087 25.836772 0.000008 0.000019 2.842789 16.932155 65.962101 25.836794 -0.000063 0.000000 2.639699 -0.000000 0.000001 -0.000000 -0.000026 0.000007 0.000013 -0.000003 -0.000001 -0.000000 -0.000018 0.000006 0.000010 -0.000001 -0.000000 0.000000 -11.289894 -0.000040 -0.000002 -6.808213 -1.392237 3.796040 0.000025 0.000050 -38.200314 -0.534370 0.074829 7.868947 -0.000041 -0.000064 -39.900841 -5.726907 3.101125 20.434389 0.000011 -15.261730 0.000041 0.763001 0.689243 -19.510142 0.000002 -7.370663 -0.000002 -0.000001 -0.000000 -0.000000 0.000006 -0.000003 0.000000 0.000001 -0.000000 -0.000001 -0.000001 -0.000000 0.000003 -0.000000 0.000000 0.000000 11.315681 -0.000005 -0.000001 -8.809986 -1.139492 -2.953420 -0.000035 0.000022 -38.200329 0.102761 -0.033693 18.119966 0.000001 -0.000013 -39.900867 9.263891 -2.884979 17.108183 0.000021 -15.261687 0.000000 0.196726 -0.772218 -22.908161 -0.000003 -7.539975 0.000000 -0.000001 0.000001 -0.000000 -0.000002 0.000060 0.000001 0.000000 0.000000 0.000003 -0.000001 0.000001 -0.000005 -0.000000 -0.000000 0.000000 
-19.642700 -8.021423 89.000877 5.852326 1.031338 -3.398992 -0.000006 2.080077 8.814259 -0.089237 -1.187952 4.945603 0.000036 -0.000011 8.844149 -0.247587 0.496866 2.247553 -0.000008 -0.000022 11.682281 -3.309731 0.175032 7.059773 -0.000014 0.000021 11.746695 -1.377888 0.615762 6.687395 0.000003 -0.000010 17.658253 1.011928 1.708844 -4.750648 -0.000009 -0.000005 5.101484 1.324580 -0.589655 -8.833630 0.000015 0.000001 5.101537 -0.764621 1.071551 -13.209794 0.000002 -0.000002 11.655067 0.000000 -0.000000 0.000001 -2.625370 0.000031 11.175206 19.964807 -83.723448 0.628914 0.000046 -0.000008 10.434731 -71.826194 -12.369432 78.471155 0.000001 -0.000008 29.628407 7.974056 1.110733 10.437467 0.000046 0.000103 22.857578 -42.963946 2.164974 -14.821625 -2.867315 -2.944244 3.959549 31.678004 -22.563395 43.884560 -0.000008 -0.000015 3.350388 -24.496613 11.026059 -42.059977 -0.000019 -0.000008 3.756470 -16.165743 9.630628 -28.648614 0.000007 0.000001 3.147330 0.000001 0.000001 -0.000003 -0.086769 -2.345262 10.030884 -30.524406 -54.839944 22.076961 -0.000027 -0.000015 4.061077 -2.051520 -40.534738 6.902542 -0.000011 -0.000016 3.248871 -2.551517 -40.534789 6.902517 0.000014 0.000005 2.639712 -0.000001 0.000002 0.000001 0.104088 -0.006779 9.502960 -21.016439 -54.937848 17.317984 0.000008 0.000007 4.568710 -0.414477 -39.947529 2.515732 -0.000029 -0.000027 3.654987 -0.914454 -39.947563 2.515715 -0.000013 0.000012 2.741237 -0.000002 0.000000 -0.000003 0.086739 2.267439 8.921722 -9.135039 -61.611769 14.299154 0.000029 -0.000025 4.061090 0.300113 -43.151503 -3.287031 -0.000013 0.000024 3.654978 1.300125 -43.151486 -3.287035 -0.000009 -0.000003 2.741231 0.000002 0.000002 -0.000001 -0.173492 4.467215 7.976997 8.915212 -64.834485 5.644967 0.000008 0.000028 3.350403 2.038595 -42.660603 -10.318604 0.000010 0.000019 2.842758 4.038593 -42.660644 -10.318605 0.000012 0.000000 2.639722 -0.000000 0.000001 0.000001 -0.000017 0.000003 -0.000019 -0.000002 0.000002 0.000001 0.000002 -0.000000 -0.000013 0.000000 0.000000 -0.000000 2.625381 0.000019 11.175203 -16.951145 78.146961 -0.170254 -0.000053 0.000008 10.813622 75.306995 16.845396 72.742676 0.000000 -0.000034 28.724735 9.268838 -1.586365 28.333628 0.644375 0.328857 25.716164 32.588550 6.382313 -35.397049 2.867282 -2.944336 3.959534 -32.995353 27.956798 36.610941 -0.000038 0.000000 3.350483 36.138982 -9.737574 -60.735244 -0.000038 -0.000038 3.756500 24.193252 -11.009489 -41.576038 -0.000027 -0.000004 3.100016 0.000000 0.000002 -0.000000 0.086784 -2.345301 10.030922 -17.489394 94.983056 -23.145821 -0.000004 0.000000 4.061142 -11.184511 65.595784 -18.044757 -0.000008 0.000004 3.248917 -11.684547 65.595805 -18.044779 -0.000002 -0.000063 2.639718 -0.000000 0.000003 -0.000001 -0.104128 -0.006794 9.502950 -61.421692 97.404624 -60.371926 0.000069 -0.000063 4.568789 -3.679907 65.245095 -6.522759 0.000000 -0.000083 3.654968 -4.179888 65.245102 -6.523220 -0.000046 -0.000008 2.741250 0.000001 -0.000001 -0.000003 -0.086750 2.267448 8.921745 -61.321998 106.402613 -52.254089 0.000031 -0.000021 4.061131 5.178897 68.708561 9.029535 0.000013 -0.000006 3.654991 6.178904 68.708609 9.026536 -0.000021 -0.000002 2.741246 0.000001 -0.000001 0.000000 0.173487 4.467194 7.977009 -80.134962 112.670234 -61.432996 0.000015 -0.000023 3.350464 15.041777 66.053919 25.956787 -0.000008 -0.000019 2.842773 17.041805 66.053919 25.956809 -0.000019 -0.000003 2.639697 -0.000000 -0.000001 -0.000001 -0.000029 0.000007 -0.000006 -0.000003 0.000001 0.000001 0.000034 -0.000006 -0.000005 0.000001 0.000001 -0.000001 -11.289905 0.000018 0.000006 -6.570672 -1.515771 2.680488 0.000019 0.000041 -38.200321 -0.528777 0.071985 7.806339 0.000004 -0.000087 -39.900841 -5.938213 3.114420 20.751848 0.000009 -15.261692 0.000038 0.752958 0.680645 -19.711262 -0.000006 -7.370665 0.000000 -0.000000 0.000000 -0.000000 0.000006 0.000064 0.000001 -0.000000 0.000000 0.000002 0.000031 0.000061 -0.000002 -0.000000 0.000000 -0.000000 11.315678 0.000062 -0.000001 -9.270125 -1.248777 -3.777342 -0.000003 0.000045 -38.200333 0.124912 -0.038261 17.544374 0.000013 0.000032 -39.900845 9.668883 -2.738417 17.546309 0.000041 -15.261679 0.000031 0.168474 -0.781586 -22.977226 -0.000004 -7.539971 0.000000 -0.000001 0.000001 -0.000000 -0.000004 0.000004 -0.000000 -0.000001 -0.000000 0.000003 0.000004 0.000060 -0.000004 0.000000 0.000000 -0.000001 
